<?xml version="1.0" encoding="UTF-8" standalone="no"?>
<!-- Created with Inkscape (http://www.inkscape.org/) -->

<svg
   xmlns:dc="http://purl.org/dc/elements/1.1/"
   xmlns:cc="http://creativecommons.org/ns#"
   xmlns:rdf="http://www.w3.org/1999/02/22-rdf-syntax-ns#"
   xmlns:svg="http://www.w3.org/2000/svg"
   xmlns="http://www.w3.org/2000/svg"
   xmlns:sodipodi="http://sodipodi.sourceforge.net/DTD/sodipodi-0.dtd"
   xmlns:inkscape="http://www.inkscape.org/namespaces/inkscape"
   width="109.8125"
   height="65.438118"
   id="svg2"
   version="1.1"
   inkscape:version="0.48.4 r9939"
   sodipodi:docname="gzll.svg"
   inkscape:export-filename="/home/gu45zin/gzll-220px.png"
   inkscape:export-xdpi="180.31"
   inkscape:export-ydpi="180.31">
  <defs
     id="defs4">
    <clipPath
       clipPathUnits="userSpaceOnUse"
       id="clipPath376">
      <path
         inkscape:connector-curvature="0"
         d="m 0,485.035 648.988,0 L 648.988,0 0,0 0,485.035 z"
         id="path378" />
    </clipPath>
  </defs>
  <sodipodi:namedview
     id="base"
     pagecolor="#ffffff"
     bordercolor="#666666"
     borderopacity="1.0"
     inkscape:pageopacity="0.0"
     inkscape:pageshadow="2"
     inkscape:zoom="7.9195959"
     inkscape:cx="63.426951"
     inkscape:cy="23.494845"
     inkscape:document-units="px"
     inkscape:current-layer="layer1"
     showgrid="false"
     fit-margin-top="0"
     fit-margin-left="0"
     fit-margin-right="0"
     fit-margin-bottom="0"
     inkscape:window-width="1920"
     inkscape:window-height="1178"
     inkscape:window-x="1920"
     inkscape:window-y="0"
     inkscape:window-maximized="1" />
  <metadata
     id="metadata7">
    <rdf:RDF>
      <cc:Work
         rdf:about="">
        <dc:format>image/svg+xml</dc:format>
        <dc:type
           rdf:resource="http://purl.org/dc/dcmitype/StillImage" />
        <dc:title></dc:title>
      </cc:Work>
    </rdf:RDF>
  </metadata>
  <g
     inkscape:label="Layer 1"
     inkscape:groupmode="layer"
     id="layer1"
     transform="translate(-131.4375,-214.58695)">
    <path
       style="fill:none;stroke:#008d00;stroke-width:0.91657943px;stroke-linecap:butt;stroke-linejoin:miter;stroke-opacity:1"
       d="m 131.44611,270.93361 109.81541,0"
       id="path3017"
       inkscape:connector-curvature="0" />
    <text
       xml:space="preserve"
       style="font-size:12px;font-style:normal;font-variant:normal;font-weight:normal;font-stretch:normal;text-align:center;line-height:125%;letter-spacing:0px;word-spacing:0px;text-anchor:middle;fill:#000000;fill-opacity:1;stroke:none;font-family:Loma;-inkscape-font-specification:Loma"
       x="203.57143"
       y="269.50507"
       id="text2985"
       sodipodi:linespacing="125%"><tspan
         sodipodi:role="line"
         id="tspan2987"
         x="203.57143"
         y="269.50507"
         style="font-size:40px;font-style:normal;font-variant:normal;font-weight:300;font-stretch:normal;font-family:Futura-Light;-inkscape-font-specification:Futura-Light Light">gzll</tspan></text>
    <g
       transform="matrix(0.14134195,0,0,-0.14134195,114.61983,277.39346)"
       id="g372">
      <g
         id="g374"
         clip-path="url(#clipPath376)">
        <g
           id="g380"
           transform="translate(155.2378,219.8496)">
          <path
             inkscape:connector-curvature="0"
             d="M 0,0 C -9.206,-1.317 -9.81,-15.15 -3.777,-20.508 0.815,-17.283 1.542,-5.941 0,0 m -16.728,-43.712 c 3.791,4.452 12.677,11.729 12.41,17.27 -0.183,3.875 -6.996,8.259 -8.633,12.95 -2.607,7.46 -0.503,12.361 3.777,17.81 -0.408,3.37 -3.401,3.613 -4.677,6.118 -0.987,7.634 -4.746,11.204 -2.339,18.708 -1.462,5.92 -4.67,12.856 -4.856,19.969 -0.264,10.106 2.951,24.577 7.016,31.3 2.344,3.881 8.953,6.588 13.222,8.951 8.98,4.97 13.334,7.818 24.556,11.018 10.123,2.887 20.466,7.433 35.079,6.476 12.582,-0.824 25.435,-3.259 38.857,-5.397 17.768,-2.828 35.708,-8.996 57.204,-10.254 18.584,-1.088 39.864,2.877 55.05,-2.159 8.499,-2.818 15.417,-13.844 28.062,-13.492 4.517,0.126 10.995,3.608 14.034,3.778 9.237,12.725 12.887,32.404 21.046,46.952 1.578,2.815 5.175,5.495 5.938,8.634 2.252,9.296 -0.636,17.72 5.935,24.286 6.823,-2.71 8.215,-10.853 12.413,-16.19 2.99,-1.247 5.88,0.973 7.555,2.698 -6.284,17.605 -29.882,33.941 -29.882,33.941 0,0 -37.751,28.999 -58.625,41.615 12.912,-2.02 26.773,-8.816 37.669,-15.541 5.018,-3.099 9.517,-5.514 21.887,-14.662 15.161,-11.213 34.27,-30.921 39.554,-35.3 -0.912,2.819 -5.292,10.4 -12.756,18.679 -11.646,12.918 -28.306,27.817 -31.846,31.174 -9.04,8.567 -18.596,15.198 -32.922,18.889 7.327,-0.069 14.329,-0.836 20.504,-2.979 13.205,-4.586 23.669,-13.58 32.705,-22.236 5.679,-4.947 9.965,-8.952 15.843,-15.017 8.701,-8.977 14.473,-14.381 17.839,-27.769 5.608,1.23 7,6.67 11.872,8.636 -0.021,-6.67 -6.008,-11.956 -8.637,-17.81 3.883,-15.693 7.123,-27.163 17.272,-36.158 3.673,-3.257 8.985,-4.805 12.952,-8.095 4.477,-3.718 6.768,-9.736 9.888,-14.074 0.119,-0.168 0.214,-0.43 0.27,-0.599 0,-0.23 0.095,-0.36 0.095,-0.59 0,-0.982 0.13,-1.743 0.13,-2.727 0,-0.405 -0.169,-0.955 -0.253,-1.293 -0.253,-0.393 -0.264,-0.402 -0.394,-0.562 -10.702,-13.052 -43.16,-5.086 -57.767,-0.664 -2.687,-4.984 -3.425,-5.773 -5.858,-11.594 -0.978,-2.34 -3.322,-7.683 -4.045,-9.684 -1.436,-3.97 -4.48,-10.145 -6.828,-14.88 -2.346,-4.731 -5,-10.069 -7.555,-14.033 C 277.035,18.429 265.484,11.845 250.954,3.777 246.831,1.49 240.513,-1.324 238,-4.318 c -1.821,-2.167 -2.204,-5.804 -3.777,-8.095 -6.775,-9.866 -7.473,-9.304 -18.266,-18.896 -2.958,-27.574 -9.564,-55.675 -10.337,-84.181 -0.299,-10.98 -4.445,-37.848 -1.62,-46.414 1.193,-3.612 7.579,-5.66 7.016,-10.793 -2.437,-3.855 -11.331,-1.775 -15.648,-1.079 -3.626,4.676 -2.623,10.864 -2.161,16.731 0.915,11.584 -0.245,25.168 -1.08,36.695 -0.519,7.186 -0.533,15.77 -4.317,19.43 -3.352,-2.568 -5.664,-7.635 -6.476,-12.413 -2.776,-16.358 -5.674,-37.37 -2.825,-53.901 0.325,-1.883 2.232,-3.844 2.713,-5.597 -1.125,-2.586 -8.118,-0.991 -12.143,-1.237 -2.791,3.043 -5.688,6.816 -6.096,11.627 -0.32,3.801 1.866,7.083 2.698,11.331 2.861,14.556 2.955,33.768 4.32,46.951 1.327,5.871 1.601,6.177 1.619,10.257 0.042,9.451 0.612,21.576 1.619,32.381 1.378,14.788 -7.955,29.158 -13.65,40.405 -23.857,1.616 -33.256,-3.71 -53.273,-0.471 -11.489,1.862 -18.123,6.687 -26.983,9.715 -7.126,-5.86 -8.49,-16.187 -12.952,-24.285 -2.339,-4.245 -5.741,-8.026 -8.095,-12.414 -2.572,-4.796 -4.828,-10.705 -7.554,-17.269 -2.498,-6.015 -7.308,-12.259 -7.558,-17.81 -0.098,-2.235 1.1,-5.882 1.62,-9.174 2.618,-16.573 10.421,-27.339 19.43,-41.018 3.106,-4.715 6.395,-10.091 9.712,-15.107 3.309,-5.007 7.093,-12.407 10.255,-15.113 3.816,-3.267 11.43,-3.917 10.794,-9.714 -4.985,-2.041 -13.436,1.134 -21.049,0 -16.989,26.661 -35.962,56.971 -51.27,84.191 -2.393,4.255 -5.608,7.878 -5.935,11.331 -0.495,5.25 4.912,10.84 7.017,16.191 2.649,6.746 3.633,14.574 5.934,19.967 1.539,3.606 7.115,7.049 7.558,11.335 0.355,3.479 -1.767,6.823 -3.781,9.174 -4.283,-3.324 -4.406,-7.808 -7.013,-11.331 -3.517,-4.758 -9.444,-7.547 -13.492,-11.876 -10.906,-11.658 -24.201,-25.413 -23.207,-48.03 0.805,-18.326 4.986,-42.483 9.174,-59.906 1.479,-6.156 3.176,-13.548 5.397,-17.807 1.521,-2.923 6.472,-4.455 4.318,-8.636 l -9.174,0 c -3.081,0.045 -6.967,0.228 -9.177,1.619 -3.914,18.359 -5.172,39.521 -9.712,55.588 -2.389,8.444 -2.231,17.874 -4.318,26.444 -2.291,9.395 -5.298,19.409 -6.475,30.223 0,1.616 0.516,4.451 0.516,4.451 0,0 7.396,10.583 12.976,17.136"
             style="fill:#07809e;fill-opacity:1;fill-rule:evenodd;stroke:none"
             id="path382" />
        </g>
      </g>
    </g>
    <path
       style="fill:none;stroke:#008d00;stroke-width:0.69999999;stroke-linecap:butt;stroke-linejoin:miter;stroke-miterlimit:4;stroke-opacity:1;stroke-dasharray:none"
       d="m 237.02735,270.50411 c 0.52723,-0.36772 2.79326,-6.62146 2.39911,-6.81853"
       id="path3789"
       inkscape:connector-curvature="0"
       sodipodi:nodetypes="cc" />
    <path
       style="fill:none;stroke:#008d00;stroke-width:0.69999999;stroke-linecap:butt;stroke-linejoin:miter;stroke-miterlimit:4;stroke-opacity:1;stroke-dasharray:none"
       d="m 236.81506,270.75665 c 0.52723,-0.36772 0.14161,-6.62146 -0.25254,-6.81853"
       id="path3789-4"
       inkscape:connector-curvature="0"
       sodipodi:nodetypes="cc" />
    <path
       style="fill:none;stroke:#008d00;stroke-width:0.69999999;stroke-linecap:butt;stroke-linejoin:miter;stroke-miterlimit:4;stroke-opacity:1;stroke-dasharray:none"
       d="m 236.77263,270.63038 c 0.52723,-0.36772 -1.75243,-6.24265 -2.14658,-6.43972"
       id="path3789-4-5"
       inkscape:connector-curvature="0"
       sodipodi:nodetypes="cc" />
  </g>
</svg>
